<svg width="100%" height="100%" viewBox="0 0 24 24" version="1.1" xmlns="http://www.w3.org/2000/svg" xmlns:xlink="http://www.w3.org/1999/xlink" fit="" preserveAspectRatio="xMidYMid meet" focusable="false">
    <g stroke="none" stroke-width="1" fill-rule="evenodd">
        <polygon fill="none" opacity="0" points="2 2 22 2 22 22 2 22"></polygon>
        <path d="M21.5,8.70833333 L12.4166667,4.125 C12.1666667,3.95833333 11.8333333,3.95833333 11.5833333,4.125 L2.5,8.70833333 C2.33333333,8.79166667 2.16666667,8.875 2.08333333,9.125 C2.08333333,9.20833333 2,9.375 2,9.45833333 L2,14.7083333 C2,15.2083333 2.41666667,15.625 2.91666667,15.625 C3.41666667,15.625 3.83333333,15.2083333 3.83333333,14.7083333 L3.83333333,10.7916667 L5.66666667,11.5416667 L5.66666667,15.9583333 C5.66666667,16.2916667 5.83333333,16.625 6.16666667,16.7916667 C7.75,17.5416667 9.33333333,18.5416667 12,18.5416667 C14.6666667,18.5416667 16.3333333,17.5416667 17.8333333,16.7916667 C18.1666667,16.625 18.3333333,16.2916667 18.3333333,15.9583333 L18.3333333,11.5416667 L21.4166667,10.2916667 C21.75,10.125 22,9.875 22,9.45833333 C22,9.125 21.8333333,8.79166667 21.5,8.70833333 Z M16.5833333,15.4583333 L15.6666667,15.875 C13.3333333,17.0416667 10.6666667,17.0416667 8.33333333,15.875 L7.41666667,15.4583333 L7.41666667,12.2916667 L11.5833333,13.9583333 C11.6666667,14.0416667 11.8333333,14.0416667 11.9166667,14.0416667 C12,14.0416667 12.1666667,14.0416667 12.25,13.9583333 L16.4166667,12.2916667 L16.4166667,15.4583333 L16.5833333,15.4583333 Z M12,12.125 L5.16666667,9.375 L12,5.95833333 L18.8333333,9.375 L12,12.125 Z M2.91666667,16.7916667 C2.41666667,16.7916667 2,17.2083333 2,17.7083333 L2,19.5416667 C2,20.0416667 2.41666667,20.4583333 2.91666667,20.4583333 C3.41666667,20.4583333 3.83333333,20.0416667 3.83333333,19.5416667 L3.83333333,17.7083333 C3.83333333,17.125 3.41666667,16.7916667 2.91666667,16.7916667 Z" fill="#139FF0"></path>
    </g>
</svg>