<svg width="100%" height="100%" viewBox="0 0 24 24" version="1.1" xmlns="http://www.w3.org/2000/svg" xmlns:xlink="http://www.w3.org/1999/xlink" fit="" preserveAspectRatio="xMidYMid meet" focusable="false">
    <g stroke="none" stroke-width="1" fill-rule="evenodd">
        <polygon fill="none" opacity="0" points="2 2 22 2 22 22 2 22"></polygon>
        <path d="M20,6 L14,6 L14,3 C14,2.448 13.553,2 13,2 L4,2 C3.447,2 3,2.448 3,3 L3,22 L5,22 L5,14 L10.586,14 L8.293,16.293 C8.007,16.579 7.923,17.009 8.076,17.383 C8.23,17.757 8.596,18 9,18 L20,18 C20.553,18 21,17.552 21,17 L21,7 C21,6.448 20.553,6 20,6 Z" fill="#5DC26A"></path>
    </g>
</svg>