<svg width="100%" height="100%" viewBox="0 0 24 24" version="1.1" xmlns="http://www.w3.org/2000/svg" xmlns:xlink="http://www.w3.org/1999/xlink" fit="" preserveAspectRatio="xMidYMid meet" focusable="false">
    <g stroke="none" stroke-width="1" fill-rule="evenodd">
        <polygon fill="none" opacity="0" points="2 2 22 2 22 22 2 22"></polygon>
        <path d="M2,5.24652778 L12,2 L22,5.24652778 L19.4479167,15.5503472 L11.9826389,22 L4.265625,15.8194444 L2.00868056,5.24652778 L2,5.24652778 Z M11.53125,7.37326389 C11.2361111,7.37326389 10.90625,7.38194444 10.5243056,7.40798611 C10.1510417,7.43402778 9.79513889,7.48611111 9.46527778,7.55555556 L9.46527778,14.9513889 L10.828125,14.9513889 L10.828125,12.1128472 L11.9565972,12.1128472 C12.4761082,12.7624995 12.9461759,13.4501912 13.3628472,14.1701389 C13.5277778,14.4305556 13.6753472,14.6909722 13.8055556,14.9513889 L15.3333333,14.9513889 C15.0640595,14.3553479 14.7446233,13.7832666 14.3784722,13.2413194 C14.0681611,12.7626307 13.7350222,12.299133 13.3802083,11.8524306 C14.3784722,11.4965278 14.8819444,10.8107639 14.8819444,9.78645833 C14.8819444,8.97048611 14.5954861,8.36284722 14.0138889,7.96354167 C13.2639859,7.52295629 12.3992033,7.31734365 11.53125,7.37326389 Z M11.6354167,8.55381944 C11.8958333,8.55381944 12.1475694,8.57118056 12.3645833,8.61458333 C12.5902778,8.64930556 12.7899306,8.71875 12.9461806,8.81423611 C13.1111111,8.90104167 13.2326389,9.03125 13.3194444,9.1875 C13.40625,9.35243056 13.4496528,9.54340278 13.4496528,9.77777778 C13.4496528,10.0208333 13.40625,10.2204861 13.3194444,10.3854167 C13.2326389,10.5416667 13.1111111,10.671875 12.9375,10.7586806 C12.7638889,10.8541667 12.5555556,10.9236111 12.3038194,10.9583333 C12.0434028,10.9930556 11.7569444,11.0104167 11.4270833,11.0104167 L10.828125,11.0104167 L10.828125,8.57986111 C11.0798611,8.5625 11.3489583,8.55381944 11.6354167,8.55381944 Z" fill="#9743EF"></path>
    </g>
</svg>