<svg width="128" height="128" viewBox="0 0 128 128" fill="none" xmlns="http://www.w3.org/2000/svg"><path d="M70.11 79.28l-6.06 6.08L42.69 64v-7.72L31.01 44.61v-9.64h11.68v-7.81h42.69v25.59M85.38 34.97h11.61v9.7l-9.05 9.05M64.05 100.84V84.19M77.62 98.97H50.46M42.69 32.73v26.15" stroke="#007FED" stroke-width="4" stroke-miterlimit="10"/><path d="M80.12 82.93c8.588 0 15.55-6.962 15.55-15.55 0-8.588-6.962-15.55-15.55-15.55-8.588 0-15.55 6.962-15.55 15.55 0 8.588 6.962 15.55 15.55 15.55z" stroke="#007FED" stroke-width="4" stroke-linejoin="round"/><path d="M72.35 67.38l5.18 5.19L87.89 62.2" stroke="#007FED" stroke-width="4" stroke-miterlimit="10"/></svg>
