<svg xmlns="http://www.w3.org/2000/svg" width="20" height="20" viewBox="0 0 20 20">
  <g id="identity" transform="translate(-2 -2)">
    <path id="Path_3" data-name="Path 3" d="M2,2H22V22H2Z" fill="none" fill-rule="evenodd" opacity="0"/>
    <path id="Path_4" data-name="Path 4" d="M20,4H4A2.006,2.006,0,0,0,2,6V18a2.006,2.006,0,0,0,2,2H20a2.006,2.006,0,0,0,2-2V6A2.006,2.006,0,0,0,20,4ZM9,8a2,2,0,1,1-2,2A2,2,0,0,1,9,8ZM6,16a2.794,2.794,0,0,1,3-3,2.794,2.794,0,0,1,3,3Zm12,0H14V14h4Zm0-3H14V11h4Z" fill="#7a7e84" fill-rule="evenodd"/>
  </g>
</svg>
