<svg xmlns="http://www.w3.org/2000/svg" width="20" height="20" viewBox="0 0 20 20">
  <g id="payment" transform="translate(-2 -2)">
    <path id="Path_8" data-name="Path 8" d="M2,2H22V22H2Z" fill="none" fill-rule="evenodd" opacity="0"/>
    <path id="Path_9" data-name="Path 9" d="M20.342,2.105A.991.991,0,0,0,19.3,2.2L15.922,4.733,12.542,2.2a1,1,0,0,0-1.193,0L7.97,4.733,4.59,2.2a.994.994,0,0,0-1.59.8V11.94c0,5.491,8.151,9.662,8.5,9.835l.447.226.447-.225c.348-.174,8.5-4.345,8.5-9.836V2.994A1,1,0,0,0,20.342,2.105ZM14.928,9.952H11.449a.5.5,0,1,0,0,.994h.994a2.485,2.485,0,0,1,.5,4.92V16.91H10.952v-.994H8.964V13.928h3.479a.5.5,0,1,0,0-.994h-.994a2.485,2.485,0,0,1-.5-4.92V6.97H12.94v.994h1.988Z" fill="#7a7e84" fill-rule="evenodd"/>
  </g>
</svg>
